<svg xmlns="http://www.w3.org/2000/svg" width="20" height="20" style=""><rect id="backgroundrect" width="100%" height="100%" x="0" y="0" fill="none" stroke="none"/><g class="currentLayer" style=""><title>Layer 1</title><path d="m18.06406497592252,13.798566818237305 v-0.6692345142364502 c0,-0.040131911635398865 -0.003490661482709184,-0.08012548089027405 -0.008477252323364493,-0.11970383673906326 c0.07928713640251939,-0.03957836702466011 0.15292279965224864,-0.08330836147069931 0.21974343293679865,-0.13146662712097168 c0.2960385915533337,-0.2131144106388092 0.4522858126887641,-0.4944530725479126 0.4519533922247554,-0.8135709762573242 c-0.000166209808482691,-0.27303552627563477 -0.12084221907678216,-0.5333395004272461 -0.32944887721802374,-0.734414279460907 c0.16372711526181583,-0.16191157698631287 0.2568105760374717,-0.3681066334247589 0.2519902005110808,-0.5828816294670105 c-0.008477252323364493,-0.38153010606765747 -0.31049976459888384,-0.7067371010780334 -0.723058900098188,-0.8265793323516846 c0.08560354341608178,-0.14862653613090515 0.13347502535951072,-0.31496644020080566 0.13347502535951072,-0.4904398024082184 v-0.19498585164546967 c0.6113588091225708,-0.03542680665850639 1.095725256597575,-0.46054843068122864 1.095725256597575,-0.9782503247261047 c0,-0.07486678659915924 -0.01894910874694178,-1.8531264066696167 -1.6666924546699136,-3.5415735244750977 c-0.8374184786962147,-0.8581312894821167 -1.9459427440641264,-1.5377447605133057 -3.295154108749614,-2.020019769668579 c-1.631952332261264,-0.5832968354225159 -3.6275951418747354,-0.8794426918029785 -5.931743100370284,-0.880134642124176 c-2.9020431037852745,0.000830333330668509 -5.298442805878381,0.46802133321762085 -7.12271179180874,1.3882880210876465 c-0.15109437867865338,0.07625067234039307 -0.19929831980807222,0.2398228645324707 -0.10787705428521477,0.3654772937297821 c0.0915874292884844,0.1256544440984726 0.2880599737981804,0.16592475771903992 0.43898821968879176,0.08967410773038864 c1.7232073410857396,-0.8692022562026978 4.008239775375841,-1.310376524925232 6.791601060091352,-1.3112068176269531 c2.216882119149517,0.0006919209263287485 4.127585753866754,0.2821689248085022 5.679586550228066,0.8369583487510681 c1.2531357480027339,0.4479553699493408 2.279713335134943,1.0759507417678833 3.0511424330609316,1.8665497303009033 c1.5062896524697322,1.543418526649475 1.5235768796119231,3.1388702392578125 1.5235768796119231,3.2059874534606934 c0,0.2474341094493866 -0.24168448461994174,0.4486473500728607 -0.5388866871964382,0.4486473500728607 h-19.430503297850237 c-0.29720214062132655,0 -0.5388866871964382,-0.20121319591999054 -0.5388866871964382,-0.4486473500728607 c0,-0.06684042513370514 0.010471856423577286,-0.6775376200675964 0.3759906540722291,-1.5168484449386597 c0.39976012672896744,-0.9183292388916016 1.0501807721129808,-1.7169547080993652 1.9328112218970261,-2.373595952987671 c0.131646588897123,-0.09797725081443787 0.14311579190108503,-0.26625457406044006 0.0254317182481123,-0.3757178783416748 c-0.11768407752517085,-0.10960167646408081 -0.3196418384892752,-0.11901191622018814 -0.4512884583639831,-0.02117304317653179 c-2.493472549190301,1.8552019596099854 -2.522228917381284,4.188942909240723 -2.522228917381284,4.287335395812988 c0,0.5177018642425537 0.4843663545422494,0.9428234100341797 1.0955588450112685,0.9782503247261047 v0.19498585164546967 c0,0.17699559032917023 0.048868785929634395,0.34471938014030457 0.13580209251791153,0.49431464076042175 c-0.15641341587864233,0.04649768024682999 -0.30052656210450834,0.12205640226602554 -0.41854313753765027,0.22210945188999176 c-0.2031213719872671,0.17229050397872925 -0.31199573413088544,0.3977212607860565 -0.3066766969308965,0.6344996690750122 c0.0044879632908031986,0.20522639155387878 0.09275101707845845,0.39716771245002747 0.24334672633911758,0.5493922829627991 c-0.2084404246760485,0.2010747790336609 -0.32895029298838807,0.4613787531852722 -0.32911648773159996,0.7339990735054016 c-0.000332419616965382,0.3191179931163788 0.15591480067142172,0.600456714630127 0.4519533922247554,0.8135709762573242 c0.07097613690533855,0.05106441304087639 0.14976460388986368,0.09714692085981369 0.23453708840152743,0.13852433860301971 c-0.0044879632908031986,0.03736419230699539 -0.0074799086471283305,0.07486678659915924 -0.0074799086471283305,0.11264616250991821 v0.6686809659004211 c-0.6130210043753692,0.03404296189546585 -1.0993819746344258,0.4597181975841522 -1.0993819746344258,0.9785270690917969 c0,2.195769786834717 2.1457399888552686,3.9820556640625 4.782993139897087,3.9820556640625 h12.220858489868078 c2.6372536466831775,0 4.782993139897087,-1.7862858772277832 4.782993139897087,-3.9820556640625 c0,-0.5165947675704956 -0.4823717698030272,-0.9410243630409241 -1.0919021269744178,-0.9779735207557678 zm-0.20677822942325008,-1.3229697942733765 c-0.2938777501157297,0.21159210801124573 -0.832598242568956,0.2996056377887726 -1.406224990218874,0.22972069680690765 c-0.4060765492313223,-0.04954215884208679 -0.6198360730625296,-0.14364460110664368 -0.8460620922673101,-0.24342089891433716 c-0.052026989436415594,-0.02283370867371559 -0.10455264829082545,-0.04608255252242088 -0.159405370431438,-0.06863943487405777 l0.726050901117361,-0.6152639985084534 c0.0905901369188733,-0.07680421322584152 0.21675146289521052,-0.12081094086170197 0.3462371174219747,-0.12081094086170197 h1.0398751491545966 c0.09939984455602957,0 0.19713747837046824,-0.011209255084395409 0.29221555486293127,-0.033489421010017395 c0.14926592672747319,0.11043201386928558 0.23802767365033617,0.27123647928237915 0.23819388388234053,0.44131284952163696 c0,0.16204997897148132 -0.0776249488941172,0.3002975583076477 -0.23088016901037456,0.41059112548828125 zm-18.753322386916125,-3.237539529800415 h18.317159973503294 v0.19221808016300201 c0,0.20661021769046783 -0.12483156667633999,0.38927966356277466 -0.31482157138443156,0.49888134002685547 c-0.005319054140855706,0.00318288616836071 -0.010804319481765301,0.0060889823362231255 -0.016289582402551073,0.00899507850408554 c-0.013630098652339662,0.007472860161215067 -0.027592613896489926,0.014530516229569912 -0.04172133937264455,0.02117304317653179 c-0.00498663416087175,0.002352587878704071 -0.009807017431658904,0.004705140367150307 -0.014627399734396529,0.006919315550476313 c-0.018118016928839742,0.00802640337496996 -0.03656849304366938,0.015499227680265903 -0.055517644384790454,0.022280128672719002 c-0.0011635111930550363,0.0004151666653342545 -0.0021608549902973895,0.000830333330668509 -0.0031581565563790215,0.0012455000542104244 c-0.021110006331418463,0.007334446534514427 -0.04271863948665189,0.013976973481476307 -0.06482599433455416,0.019650790840387344 c-0.002493317080435875,0.0006919209263287485 -0.004986591566692455,0.0012454648967832327 -0.0074799086471283305,0.0017990085761994123 c-0.018450479987027757,0.004705140367150307 -0.037233380438064234,0.008718323893845081 -0.05634874201118967,0.012039587832987309 c-0.005983935726953382,0.0011070877080783248 -0.011801661221902404,0.00207579811103642 -0.017785557742849845,0.0030445086304098368 c-0.01645583135653661,0.0024909297935664654 -0.0330778768172757,0.004705104511231184 -0.04986617510419844,0.006365736480802298 c-0.006316355222912573,0.0005535438540391624 -0.012466502149919845,0.0012454648967832327 -0.01878289851493742,0.0017990085761994123 c-0.022439769503613816,0.0017990439664572477 -0.04504574923923199,0.0029061317909508944 -0.06798415911935418,0.0029061317909508944 h-16.85890775764392 c-0.40192099914415635,0 -0.7290428401813642,-0.27234354615211487 -0.7290428401813642,-0.6069607734680176 zm-0.4657496314095333,1.281454086303711 c0.08693330271607902,-0.07362129539251328 0.20677822942325008,-0.11596740782260895 0.32911648773159996,-0.11596740782260895 h0.15524986681064945 c0.20727692207443305,0.10517333447933197 0.45045745367033874,0.16592475771903992 0.7105924666797847,0.16592475771903992 h16.85874320471271 c0.028423703778492904,0 0.05651495224319403,-0.0009687105193734169 0.08443998660369267,-0.002352587878704071 c0.008975882051328044,-0.00041513133328408003 0.01778559840093008,-0.0011070877080783248 0.026595271188303293,-0.0016605962300673127 c0.019613990333039455,-0.0013838773593306541 0.039228023260258205,-0.0030445086304098368 0.058675809169590476,-0.005120306741446257 c0.009474596967650184,-0.0009687105193734169 0.019115361573125433,-0.0017990085761994123 0.02858991788269538,-0.0029060961678624153 c0.02493308755209922,-0.003044473472982645 0.049699922278014785,-0.006504148710519075 0.07413433266772351,-0.010655711404979229 c0.010305645223523396,-0.0017990439664572477 0.02044508215114149,-0.003874806920066476 0.030750769000794653,-0.005812227725982666 c0.01678825375664439,-0.0031828503124415874 0.03357650751328878,-0.00650411332026124 0.05019859169600904,-0.010240542702376842 c0.012632710445825146,-0.0027677188627421856 0.02526550608000888,-0.005812227725982666 0.037732011134077315,-0.008856701664626598 c0.013463845826156007,-0.003321262774989009 0.026761479484208595,-0.007057692855596542 0.0400591170144593,-0.010655711404979229 c0.012799004898138566,-0.003459675470367074 0.025431762778390654,-0.006919315550476313 0.03806451291424651,-0.01065574586391449 c0.021774843387237786,-0.006780903320759535 0.04338352688104674,-0.01383859571069479 0.06465974538056862,-0.021311422809958458 c0.01279896424005833,-0.004566728137433529 0.0254317182481123,-0.009548657573759556 0.03806447032006721,-0.014392138458788395 c0.011967871453906764,-0.004566728137433529 0.02376953267580917,-0.009271867573261261 0.0354049865698558,-0.014115385711193085 c0.012466502149919845,-0.005258648656308651 0.024933046894018984,-0.01037892047315836 0.037233380438064234,-0.01591435819864273 c0.013962473618020499,-0.006227395031601191 0.02775878153431499,-0.012869920581579208 0.04155509041865901,-0.019512446597218513 c0.008311000465230367,-0.004013183526694775 0.01678825375664439,-0.007611236535012722 0.02509929584800452,-0.011762797832489014 h0.17436522063937865 c0.23453708840152743,0 0.4288486985408646,0.1587287038564682 0.43317053630399727,0.3537144958972931 c0.0031581565563790215,0.1358950287103653 -0.09657409249084203,0.2650091350078583 -0.2538186369734685,0.32866665720939636 h-0.000166209808482691 c-0.06399489670815495,0.025878146290779114 -0.13098174796910556,0.039163198322057724 -0.19896591483285597,0.039163198322057724 h-1.0400413129202235 c-0.29969546447810913,0 -0.5920771831066673,0.1019904837012291 -0.802179926945854,0.2800931930541992 l-1.295688293423325,1.0979541540145874 c-0.30883760032367036,0.26182621717453003 -0.7985228991331539,0.2972530424594879 -1.1560631487262185,0.09590145200490952 c-0.0078123717053163455,-0.004428350832313299 -0.015458491552498566,-0.008856701664626598 -0.02310465302581055,-0.013423430733382702 c-0.01994645339122747,-0.011901174671947956 -0.039726653956271285,-0.024355929344892502 -0.05884201552939672,-0.03791777417063713 c0,-0.00013837710139341652 -0.00016625238753621187,-0.00027675420278683305 -0.0003324622111446768,-0.00027675420278683305 l-1.6781617196290455,-1.1971769332885742 c-0.2036200491496576,-0.14516685903072357 -0.4634225642511325,-0.22515396773815155 -0.7315361020829769,-0.22515396773815155 h-11.824257178453195 c-0.0658232944485615,0 -0.1296519422027309,-0.012593096122145653 -0.18998997373050663,-0.037225816398859024 h-0.000166209808482691 c-0.14693887505786485,-0.06005948409438133 -0.24002232034472826,-0.18142394721508026 -0.2430142903863164,-0.3166270852088928 c-0.0021608549902973895,-0.09271857142448425 0.04188759607102632,-0.18211592733860016 0.12383425881793642,-0.25172409415245056 zm-0.2094377790008295,1.5453559160232544 c0,-0.16896922886371613 0.08793060283008636,-0.3289434313774109 0.2358667702575623,-0.4393753707408905 c0.09175368598686617,0.021034667268395424 0.18633316276090106,0.031690411269664764 0.28290722427415815,0.031690411269664764 h11.824257178453195 c0.11585564106278312,0 0.22788822994637137,0.03459647297859192 0.3158188327764577,0.09714692085981369 l1.3271041492367175,0.9468367695808411 c-0.026595271188303293,0.0008302981150336564 -0.054354087572401344,0.0012454648967832327 -0.0831102195592992,0.0012454648967832327 c-0.4207039479976693,0 -0.6120235880954183,-0.09534791111946106 -0.8540406170897086,-0.21602044999599457 c-0.2742637346134025,-0.1367253214120865 -0.5850958886987101,-0.29171761870384216 -1.1826585205916729,-0.29171761870384216 c-0.5973963442169961,0 -0.9082285912350585,0.15499228239059448 -1.1824922329157062,0.29171761870384216 c-0.24201696703912035,0.1206725463271141 -0.4331704743488274,0.21602044999599457 -0.8540406170897086,0.21602044999599457 s-0.6120237120057581,-0.09534791111946106 -0.8540406170897086,-0.21602044999599457 c-0.27426370363581754,-0.1367253214120865 -0.5850958886987101,-0.29171761870384216 -1.1824922329157062,-0.29171761870384216 c-0.597562507982623,0 -0.9083947550006854,0.15499228239059448 -1.1826585205916729,0.29171761870384216 c-0.24201696703912035,0.1206725463271141 -0.43317053630399727,0.21602044999599457 -0.8540406170897086,0.21602044999599457 c-0.4208702046960511,0 -0.6120237120057581,-0.09534791111946106 -0.8540406170897086,-0.21602044999599457 c-0.2742637346134025,-0.1367253214120865 -0.5850958886987101,-0.29171761870384216 -1.1826585205916729,-0.29171761870384216 c-0.6313051521561519,0 -0.9393117477861779,0.1358949989080429 -1.237178698357937,0.2672232985496521 c-0.2260598089727761,0.09963788837194443 -0.43965309159439414,0.19387871026992798 -0.8457296408257164,0.2432825118303299 c-0.573626747649918,0.06988489627838135 -1.112347333035899,-0.018128568306565285 -1.4060587025429072,-0.22958232462406158 c-0.15325526658263477,-0.11029359698295593 -0.23088016901037456,-0.24854117631912231 -0.2307139587783702,-0.4107294976711273 zm15.944197664356352,6.161634922027588 h-12.220858489868078 c-2.284866270524475,0 -4.143709958559896,-1.547708511352539 -4.143709958559896,-3.4499619007110596 c0,-0.2474341094493866 0.24168448461994174,-0.4486473500728607 0.5388866871964382,-0.4486473500728607 h14.328701244767785 c0.17652610854336004,0 0.31964193142203,-0.11915029585361481 0.31964193142203,-0.2661161422729492 c0,-0.1469659060239792 -0.14311582287866997,-0.266116201877594 -0.31964193142203,-0.266116201877594 h-13.768205213867759 v-0.5827432870864868 c0.18167892002255215,0.03155199810862541 0.37515952546824494,0.04815831780433655 0.5761200715067005,0.04815831780433655 c0.15458501039383954,0 0.313491734640472,-0.009686999954283237 0.4743930591151191,-0.029199445620179176 c0.51511715258453,-0.0628272071480751 0.8005176697378857,-0.18862003087997437 1.05234152061783,-0.2996056079864502 c0.26013498203186103,-0.11472193151712418 0.46558346764390635,-0.20536474883556366 0.9379819420198032,-0.20536474883556366 c0.4207039479976693,0 0.6120237120057581,0.09534791111946106 0.8540406170897086,0.21602044999599457 c0.2742637346134025,0.13672535121440887 0.5850958886987101,0.29171764850616455 1.1826585205916729,0.29171764850616455 c0.5973962203066563,0 0.9082285912350585,-0.15499228239059448 1.1824922329157062,-0.29171764850616455 c0.24201696703912035,-0.1206725463271141 0.43317053630399727,-0.21602044999599457 0.8540406170897086,-0.21602044999599457 s0.6120235880954183,0.09534791111946106 0.8540406170897086,0.21602044999599457 c0.2742637346134025,0.13672535121440887 0.5850958886987101,0.29171764850616455 1.1826585205916729,0.29171764850616455 c0.5973962203066563,0 0.9082285912350585,-0.15499228239059448 1.1824922329157062,-0.29171764850616455 c0.24201696703912035,-0.1206725463271141 0.43317053630399727,-0.21602044999599457 0.8540406170897086,-0.21602044999599457 s0.6120237120057581,0.09534791111946106 0.8540406170897086,0.21602044999599457 c0.27426370363581754,0.13672535121440887 0.5850958886987101,0.29171764850616455 1.1824922329157062,0.29171764850616455 c0.2845693575717867,0 0.5232619650828951,-0.034319717437028885 0.7526460871173057,-0.10821783542633057 c0.2162528012216125,0.0891205444931984 0.45178722845912844,0.13368085026741028 0.6873215472750971,0.13368085026741028 c0.40241967630654685,0 0.8038419982883127,-0.12925249338150024 1.1045349100239577,-0.3840210437774658 l0.08942661108406913,-0.07569713145494461 c0.12017733942678355,0.03528842702507973 0.22506243915920265,0.08109419792890549 0.3407519164563588,0.13202022016048431 c0.2518239902790764,0.11098551005125046 0.5372244919436397,0.23663996160030365 1.05234152061783,0.29946714639663696 c0.16090140191860947,0.01965082436800003 0.3198081261652419,0.029199445620179176 0.4743930591151191,0.029199445620179176 c0.20677822942325008,0 0.40557790304651675,-0.017574990168213844 0.5919109573858705,-0.050926029682159424 v0.5855110287666321 h-3.061614095874603 c-0.17652613952094498,0 -0.31964193142203,0.11915029585361481 -0.31964193142203,0.266116201877594 c0,0.1469658762216568 0.14311579190108503,0.2661161422729492 0.31964193142203,0.2661161422729492 h3.614463619707635 c0.29720214062132655,0 0.539052912917235,0.20121319591999054 0.539052912917235,0.4486473500728607 c-0.00016625238753621187,1.9022533893585205 -1.8590093561596888,3.4499619007110596 -4.143875502773824,3.4499619007110596 zm0,0 " id="svg_1" class=""/><image style="color: rgb(0, 0, 0);" id="svg_2" x="-72" y="-136" width="2" height="0" xlink:href="logo/vector_paint_icon256.png" xmlns:xlink="http://www.w3.org/1999/xlink"/></g></svg>